<svg width="43" height="42" viewBox="0 0 43 42" fill="none" xmlns="http://www.w3.org/2000/svg">
<path d="M19.7583 27.8033L12.8894 20.9344M12.8894 20.9344L19.7583 14.0656M12.8894 20.9344H36.9305M28.3444 27.8033V29.5206C28.3444 30.8869 27.8017 32.1972 26.8355 33.1634C25.8694 34.1295 24.5591 34.6722 23.1927 34.6722H11.1722C9.80587 34.6722 8.49552 34.1295 7.5294 33.1634C6.56327 32.1972 6.02051 30.8869 6.02051 29.5206V12.3483C6.02051 10.982 6.56327 9.67167 7.5294 8.70555C8.49552 7.73942 9.80587 7.19666 11.1722 7.19666H23.1927C24.5591 7.19666 25.8694 7.73942 26.8355 8.70555C27.8017 9.67167 28.3444 10.982 28.3444 12.3483V14.0656" stroke="#111827" stroke-width="3.43445" stroke-linecap="round" stroke-linejoin="round"/>
</svg>
