<svg width="50" height="62" viewBox="0 0 50 62" fill="none" xmlns="http://www.w3.org/2000/svg">
<path d="M40 34.0513C40 39.247 38.3392 43.5317 35.0175 46.9393C33.9878 47.9852 32.8584 48.8623 31.5962 49.5709C30.3339 50.2794 28.8059 50.8866 26.9458 51.3252C25.3514 51.7301 23.2587 51.9325 20.6014 52C20.3024 52 20.0035 52 19.7045 52C19.2395 52 18.7413 52 18.243 52H2.33217C2.23252 37.2564 2.13287 22.5128 2 7.73549C4.85664 5.81242 7.68007 3.92308 10.5367 2V44.1727H19.1731C22.5612 44.1727 25.1853 43.9366 27.0455 43.498C28.9056 43.0256 30.4668 42.4521 31.729 41.7436C32.9913 41.0351 34.1206 40.1579 35.1504 39.1457C37.5087 36.7841 39.0367 33.9501 39.7343 30.7112C39.9336 31.7908 40 32.9042 40 34.0513Z" fill="black" stroke="white" stroke-width="1.55649" stroke-miterlimit="10"/>
<path d="M49 26.8441C49 26.8441 49 27.3477 49 27.8513V32.8873C48.9668 32.1823 48.867 31.4772 48.7673 30.7722C48.734 30.5036 48.7008 30.235 48.6343 30C48.5346 29.53 48.4348 29.0599 48.3351 28.5899C48.2021 28.0528 48.0691 27.5156 47.9029 26.9784C47.9029 26.9448 47.8696 26.9113 47.8696 26.8777C47.8696 26.8441 47.8696 26.8106 47.8364 26.8106C47.7367 26.4412 47.4707 25.6355 47.0052 24.5611C46.972 24.494 46.9388 24.4269 46.9055 24.3597C46.839 24.1918 46.7393 23.9904 46.6395 23.8225C46.5731 23.6547 46.5066 23.5204 46.4068 23.3525C46.1409 22.7818 45.8084 22.1775 45.4759 21.6067C43.1155 17.5779 39.9571 14.5228 35.9676 12.4412C33.5407 11.1655 30.5486 10.2926 27.0245 9.78897C26.9912 9.78897 26.9913 9.78897 26.958 9.78897C26.7918 9.7554 26.6255 9.72182 26.4593 9.68825C25.2625 9.48681 23.5004 9.38609 21.14 9.35252C20.6745 9.35252 20.1759 9.35252 19.7104 9.35252H19.1785V44H11V2H19.7437C26.5923 2 32.0114 3.00719 36.0009 5.05516C43.6142 8.94964 47.0717 16.2014 48.0026 19.6259C48.5678 21.741 49 25.9376 49 26.8441Z" fill="black" stroke="white" stroke-width="1.55649" stroke-miterlimit="10"/>
<path d="M49 35.1777C49 38.5636 48.3295 41.8153 47.0221 44.8995C45.7147 47.9837 43.8373 50.7326 41.4236 53.0792C38.9429 55.4929 36.0934 57.3367 32.8081 58.5771C30.8973 59.3146 29.154 59.8175 27.5449 60.0857C24.5613 60.555 22.684 60.5215 18.393 60.4544C16.1804 60.4209 12.9957 60.3874 9.03991 60.4544C6.79383 57.7055 4.58128 54.923 2.33521 52.1741H19.2981C19.4993 52.1741 19.6669 52.1741 19.868 52.1741C20.1697 52.1741 20.4714 52.1741 20.7731 52.1741C23.455 52.1071 25.6005 51.9059 27.2097 51.5036C29.087 51.0343 30.6626 50.4644 31.903 49.7604C33.1433 49.0564 34.2831 48.1848 35.3559 47.1456C38.7082 43.7597 40.3844 39.5022 40.3844 34.3396C40.3844 33.1998 40.2838 32.0935 40.1162 31.0208C39.5128 27.4337 37.8701 24.4166 35.2218 21.9359C33.9479 20.729 32.5064 19.7569 30.8637 18.9858C29.2211 18.2148 27.679 17.7119 26.204 17.4773C24.7289 17.2426 22.3823 17.1085 19.1305 17.1085H18.9294V9.76685H19.4657C19.9686 9.76685 20.4379 9.76685 20.9072 9.76685C23.0192 9.83389 24.9636 9.96799 26.7739 10.2027C26.8074 10.2027 26.8074 10.2027 26.8409 10.2027C30.3944 10.7055 33.378 11.5771 35.8587 12.851C39.8816 14.9295 43.0663 17.9801 45.4465 22.0029C45.7817 22.5728 46.0834 23.1427 46.3851 23.7462C46.4522 23.9138 46.5527 24.0479 46.6198 24.2155C46.7204 24.3831 46.7874 24.5842 46.888 24.7519C46.9215 24.8189 46.955 24.886 46.9885 24.953C47.2903 25.6905 47.592 26.428 47.8266 27.1991C47.8266 27.2326 47.8266 27.2661 47.8602 27.2661C47.8602 27.2997 47.8937 27.3332 47.8937 27.3667C48.0613 27.9031 48.1954 28.4395 48.3295 28.9758C48.4301 29.4452 48.5306 29.9145 48.6312 30.3838C48.6647 30.652 48.7318 30.8867 48.7653 31.1549C48.8659 31.8589 48.9329 32.5629 49 33.2668C48.9664 33.9038 49 34.5407 49 35.1777Z" fill="black" stroke="white" stroke-width="1.55649" stroke-miterlimit="10"/>
</svg>
